<svg width="265" height="271" viewBox="0 0 265 271" fill="none" xmlns="http://www.w3.org/2000/svg">
<path d="M132.5 265C205.678 265 265 205.678 265 132.5C265 59.3223 205.678 0 132.5 0C59.3223 0 0 59.3223 0 132.5C0 205.678 59.3223 265 132.5 265Z" fill="#EBF8F6"/>
<g filter="url(#filter0_d)">
<mask id="mask0" style="mask-type:alpha" maskUnits="userSpaceOnUse" x="0" y="0" width="265" height="265">
<path d="M132.5 265C205.678 265 265 205.678 265 132.5C265 59.3223 205.678 0 132.5 0C59.3223 0 0 59.3223 0 132.5C0 205.678 59.3223 265 132.5 265Z" fill="url(#paint0_linear)"/>
</mask>
<g mask="url(#mask0)">
<path d="M208.467 75.9668H56.5333C51.6548 75.9668 47.7 79.9216 47.7 84.8001V270.3C47.7 275.179 51.6548 279.133 56.5333 279.133H208.467C213.345 279.133 217.3 275.179 217.3 270.3V84.8001C217.3 79.9216 213.345 75.9668 208.467 75.9668Z" fill="white"/>
</g>
</g>
<path d="M116.6 93.6328H70.6667C67.7396 93.6328 65.3667 96.0057 65.3667 98.9328C65.3667 101.86 67.7396 104.233 70.6667 104.233H116.6C119.527 104.233 121.9 101.86 121.9 98.9328C121.9 96.0057 119.527 93.6328 116.6 93.6328Z" fill="#EBF8F6"/>
<path d="M116.6 167.834H70.6667C67.7396 167.834 65.3667 170.207 65.3667 173.134C65.3667 176.061 67.7396 178.434 70.6667 178.434H116.6C119.527 178.434 121.9 176.061 121.9 173.134C121.9 170.207 119.527 167.834 116.6 167.834Z" fill="#EBF8F6"/>
<path d="M190.799 120.135H74.1995C70.2967 120.135 67.1328 123.299 67.1328 127.201V144.868C67.1328 148.771 70.2967 151.935 74.1995 151.935H190.799C194.702 151.935 197.866 148.771 197.866 144.868V127.201C197.866 123.299 194.702 120.135 190.799 120.135Z" stroke="#07A287" stroke-width="3.53333"/>
<path d="M190.8 192.566H74.2C69.3215 192.566 65.3667 196.521 65.3667 201.4V215.533C65.3667 220.412 69.3215 224.366 74.2 224.366H190.8C195.679 224.366 199.633 220.412 199.633 215.533V201.4C199.633 196.521 195.679 192.566 190.8 192.566Z" fill="#EBF8F6"/>
<path d="M93.6333 56.5337C97.5361 56.5337 100.7 53.3699 100.7 49.4671C100.7 45.5642 97.5361 42.4004 93.6333 42.4004C89.7305 42.4004 86.5667 45.5642 86.5667 49.4671C86.5667 53.3699 89.7305 56.5337 93.6333 56.5337Z" fill="white"/>
<path d="M132.5 56.5337C136.403 56.5337 139.567 53.3699 139.567 49.4671C139.567 45.5642 136.403 42.4004 132.5 42.4004C128.597 42.4004 125.434 45.5642 125.434 49.4671C125.434 53.3699 128.597 56.5337 132.5 56.5337Z" fill="#07A287"/>
<path d="M171.367 56.5337C175.27 56.5337 178.434 53.3699 178.434 49.4671C178.434 45.5642 175.27 42.4004 171.367 42.4004C167.464 42.4004 164.3 45.5642 164.3 49.4671C164.3 53.3699 167.464 56.5337 171.367 56.5337Z" fill="white"/>
<path d="M151.934 155.467C156.812 155.467 160.767 151.513 160.767 146.634C160.767 141.756 156.812 137.801 151.934 137.801C147.055 137.801 143.1 141.756 143.1 146.634C143.1 151.513 147.055 155.467 151.934 155.467Z" fill="#EBF8F6"/>
<path d="M158.836 184.388C157.423 184.388 156.103 184.388 154.902 184.312C153.422 184.211 151.999 183.705 150.788 182.848C149.577 181.991 148.626 180.817 148.04 179.455L140.586 164.725C140.04 164.088 139.767 163.261 139.827 162.424C139.887 161.587 140.276 160.808 140.908 160.257C141.426 159.84 142.072 159.616 142.737 159.622C143.226 159.637 143.706 159.757 144.144 159.975C144.583 160.192 144.968 160.503 145.275 160.884L148.66 165.504L148.711 165.564V148.012C148.711 147.141 149.057 146.306 149.673 145.69C150.289 145.074 151.124 144.729 151.995 144.729C152.866 144.729 153.701 145.074 154.316 145.69C154.932 146.306 155.278 147.141 155.278 148.012V159.495C155.24 159.073 155.29 158.647 155.426 158.245C155.561 157.843 155.779 157.473 156.065 157.16C156.352 156.847 156.7 156.597 157.088 156.426C157.476 156.254 157.896 156.166 158.32 156.166C158.745 156.166 159.164 156.254 159.552 156.426C159.941 156.597 160.289 156.847 160.575 157.16C160.861 157.473 161.079 157.843 161.215 158.245C161.35 158.647 161.401 159.073 161.362 159.495V161.889C161.324 161.466 161.375 161.041 161.51 160.639C161.646 160.237 161.864 159.867 162.15 159.554C162.436 159.241 162.784 158.991 163.173 158.819C163.561 158.648 163.98 158.56 164.405 158.56C164.829 158.56 165.249 158.648 165.637 158.819C166.025 158.991 166.373 159.241 166.66 159.554C166.946 159.867 167.164 160.237 167.299 160.639C167.435 161.041 167.485 161.466 167.447 161.889V163.733C167.409 163.311 167.459 162.885 167.595 162.483C167.73 162.081 167.948 161.712 168.234 161.398C168.52 161.085 168.869 160.835 169.257 160.664C169.645 160.493 170.065 160.404 170.489 160.404C170.913 160.404 171.333 160.493 171.721 160.664C172.109 160.835 172.458 161.085 172.744 161.398C173.03 161.712 173.248 162.081 173.384 162.483C173.519 162.885 173.569 163.311 173.531 163.733V174.929C173.471 178.372 171.915 184.177 166.44 184.177C166.042 184.195 162.675 184.389 158.843 184.389L158.836 184.388Z" fill="#07A287" stroke="white" stroke-width="1.76667"/>
<defs>
<filter id="filter0_d" x="37.1" y="60.0668" width="190.8" height="210.233" filterUnits="userSpaceOnUse" color-interpolation-filters="sRGB">
<feFlood flood-opacity="0" result="BackgroundImageFix"/>
<feColorMatrix in="SourceAlpha" type="matrix" values="0 0 0 0 0 0 0 0 0 0 0 0 0 0 0 0 0 0 127 0" result="hardAlpha"/>
<feOffset dy="-5.3"/>
<feGaussianBlur stdDeviation="5.3"/>
<feColorMatrix type="matrix" values="0 0 0 0 0.788235 0 0 0 0 0.803922 0 0 0 0 0.85098 0 0 0 0.349 0"/>
<feBlend mode="normal" in2="BackgroundImageFix" result="effect1_dropShadow"/>
<feBlend mode="normal" in="SourceGraphic" in2="effect1_dropShadow" result="shape"/>
</filter>
<linearGradient id="paint0_linear" x1="132.5" y1="0" x2="132.5" y2="265" gradientUnits="userSpaceOnUse">
<stop stop-color="#E3ECFA"/>
<stop offset="1" stop-color="#DAE7FF"/>
</linearGradient>
</defs>
</svg>
