<svg width="16" height="16" viewBox="0 0 16 16" fill="none" xmlns="http://www.w3.org/2000/svg">
<rect width="16" height="16" transform="translate(0 0.000976562)" fill="white"/>
<mask id="mask0" style="mask-type:alpha" maskUnits="userSpaceOnUse" x="0" y="0" width="16" height="17">
<path d="M8.54612 16.001H0.883077C0.395224 16.001 0 15.6055 0 15.1178V0.884047C0 0.39626 0.395286 0.000976562 0.883077 0.000976562H15.117C15.6047 0.000976562 16 0.39626 16 0.884047V15.1178C16 15.6056 15.6046 16.001 15.117 16.001H11.0398V9.80489H13.1195L13.4309 7.39017H11.0398V5.84852C11.0398 5.14941 11.2339 4.67298 12.2364 4.67298L13.5151 4.67242V2.51267C13.294 2.48325 12.5349 2.4175 11.6519 2.4175C9.80828 2.4175 8.54612 3.54282 8.54612 5.60938V7.39017H6.46104V9.80489H8.54612V16.001Z" fill="white"/>
</mask>
<g mask="url(#mask0)">
<rect width="16" height="16" transform="translate(0 0.000976562)" fill="white"/>
<rect y="0.000976562" width="16" height="16" fill="#07A287"/>
</g>
</svg>
