<svg width="18" height="16" viewBox="0 0 18 16" fill="none" xmlns="http://www.w3.org/2000/svg">
<path fill-rule="evenodd" clip-rule="evenodd" d="M0.948244 0.570312H17.0512C17.5732 0.570312 18.0002 1.10907 18.0002 1.7677V1.8964C18.0002 2.55502 17.5732 3.09378 17.0512 3.09378H0.948244C0.426244 3.09378 0.000244141 2.55502 0.000244141 1.8964V1.7677C0.000244141 1.10907 0.426244 0.570312 0.948244 0.570312ZM17.0512 6.87899H0.948244C0.426244 6.87899 0.000244141 7.41775 0.000244141 8.07638V8.20508C0.000244141 8.8637 0.426244 9.40246 0.948244 9.40246H17.0512C17.5732 9.40246 18.0002 8.8637 18.0002 8.20508V8.07638C18.0002 7.41775 17.5732 6.87899 17.0512 6.87899ZM17.0512 13.1877H0.948244C0.426244 13.1877 0.000244141 13.7264 0.000244141 14.3851V14.5138C0.000244141 15.1724 0.426244 15.7111 0.948244 15.7111H17.0512C17.5732 15.7111 18.0002 15.1724 18.0002 14.5138V14.3851C18.0002 13.7264 17.5732 13.1877 17.0512 13.1877Z" fill="#404D61"/>
</svg>
