<svg width="16" height="16" viewBox="0 0 16 16" fill="none" xmlns="http://www.w3.org/2000/svg">
<rect width="16" height="16" transform="translate(0 0.000976562)" fill="white"/>
<mask id="mask0" style="mask-type:alpha" maskUnits="userSpaceOnUse" x="0" y="1" width="16" height="15">
<path fill-rule="evenodd" clip-rule="evenodd" d="M15.9481 3.96849L15.951 3.97111C15.9742 3.9894 15.9819 4.02171 15.9658 4.04792L11.1154 11.9053L7.62826 6.25637L10.4069 1.75474C10.5066 1.59349 10.6905 1.50098 10.8754 1.50098C10.92 1.50098 10.9645 1.50784 11.0081 1.51896C11.0428 1.5278 11.077 1.53877 11.1096 1.55508L15.9362 3.9609L15.9417 3.96364C15.9442 3.96486 15.9462 3.96669 15.9481 3.96849ZM6.09772 10.3552V5.23094L10.6665 12.6325L6.09772 10.3552ZM11.3531 12.9747L15.1139 14.8492C15.6033 15.0932 16 14.9223 16 14.4678V5.44676L11.3531 12.9747ZM0.590747 1.6287L5.30464 3.97843C5.32222 3.98711 5.33338 4.0051 5.33338 4.02461V14.4678C5.33338 14.8019 5.15237 15.001 4.8943 15.001C4.80272 15.001 4.70136 14.9758 4.59495 14.9228L0.44306 12.8533C0.199362 12.7319 0 12.4103 0 12.1387V1.99266C0 1.72548 0.144782 1.56621 0.351176 1.56621C0.424561 1.56621 0.50559 1.58633 0.590747 1.6287Z" fill="white"/>
</mask>
<g mask="url(#mask0)">
<rect width="16" height="16" transform="translate(0 0.000976562)" fill="white"/>
<rect y="0.000976562" width="16" height="16" fill="#07A287"/>
</g>
</svg>
