<svg width="16" height="16" viewBox="0 0 16 16" fill="none" xmlns="http://www.w3.org/2000/svg">
<rect width="16" height="16" fill="white"/>
<mask id="mask0" style="mask-type:alpha" maskUnits="userSpaceOnUse" x="0" y="1" width="16" height="14">
<path d="M16 3.09816C15.4121 3.36923 14.7791 3.55255 14.1152 3.63445C14.7932 3.21322 15.3135 2.54529 15.5586 1.74962C14.9238 2.13965 14.2222 2.4234 13.4728 2.57551C12.8755 1.91343 12.0218 1.5 11.0771 1.5C9.26548 1.5 7.79574 3.026 7.79574 4.90791C7.79574 5.17508 7.82391 5.43445 7.88026 5.68407C5.15208 5.54171 2.73381 4.18635 1.11381 2.1221C0.831132 2.62719 0.669601 3.21322 0.669601 3.83727C0.669601 5.01907 1.24905 6.06241 2.12995 6.67378C1.59277 6.65721 1.08564 6.50217 0.642367 6.24865V6.29057C0.642367 7.94236 1.77402 9.32015 3.27663 9.63218C3.00147 9.71213 2.71128 9.75211 2.41169 9.75211C2.20039 9.75211 1.99378 9.73164 1.79374 9.69166C2.21166 11.0451 3.42314 12.0309 4.86001 12.0572C3.73681 12.9718 2.3206 13.5169 0.783236 13.5169C0.518401 13.5169 0.256383 13.5013 0 13.4701C1.45284 14.4354 3.17896 15 5.03187 15C11.0705 15 14.3715 9.80769 14.3715 5.30379C14.3715 5.15558 14.3687 5.00737 14.3631 4.86208C15.0045 4.38137 15.5614 3.78169 16 3.09816Z" fill="white"/>
</mask>
<g mask="url(#mask0)">
<rect width="16" height="16" fill="white"/>
<rect width="16" height="16" fill="#07A287"/>
</g>
</svg>
